<mxfile host="app.diagrams.net" modified="2023-04-20T11:31:30.753Z" agent="Mozilla/5.0 (Windows NT 10.0; Win64; x64) AppleWebKit/537.36 (KHTML, like Gecko) Chrome/111.0.0.0 Safari/537.36 OPR/97.0.0.0" etag="4VuV6AjDnTB04l8CncWf" version="21.1.9" type="device">
  <diagram name="Page-1" id="T1awEZ_JpK7ESxQKNuXz">
    <mxGraphModel dx="2307" dy="795" grid="1" gridSize="10" guides="1" tooltips="1" connect="1" arrows="1" fold="1" page="1" pageScale="1" pageWidth="850" pageHeight="1100" math="0" shadow="0">
      <root>
        <mxCell id="0" />
        <mxCell id="1" parent="0" />
        <mxCell id="NPeufH-eWJfrgTwNhand-1" value="Air Traffic Control System" style="rounded=0;whiteSpace=wrap;html=1;" vertex="1" parent="1">
          <mxGeometry x="410" y="40" width="145" height="80" as="geometry" />
        </mxCell>
        <mxCell id="NPeufH-eWJfrgTwNhand-2" value="" style="rounded=0;whiteSpace=wrap;html=1;" vertex="1" parent="1">
          <mxGeometry x="10" y="220" width="120" height="60" as="geometry" />
        </mxCell>
        <mxCell id="NPeufH-eWJfrgTwNhand-3" value="Aircraft" style="rounded=0;whiteSpace=wrap;html=1;" vertex="1" parent="1">
          <mxGeometry x="10" y="220" width="120" height="60" as="geometry" />
        </mxCell>
        <mxCell id="NPeufH-eWJfrgTwNhand-4" value="Meteorological System" style="rounded=0;whiteSpace=wrap;html=1;" vertex="1" parent="1">
          <mxGeometry x="180" y="220" width="120" height="60" as="geometry" />
        </mxCell>
        <mxCell id="NPeufH-eWJfrgTwNhand-5" value="Communication System" style="rounded=0;whiteSpace=wrap;html=1;" vertex="1" parent="1">
          <mxGeometry x="350" y="220" width="120" height="60" as="geometry" />
        </mxCell>
        <mxCell id="NPeufH-eWJfrgTwNhand-6" value="Navigation System" style="rounded=0;whiteSpace=wrap;html=1;" vertex="1" parent="1">
          <mxGeometry x="510" y="220" width="120" height="60" as="geometry" />
        </mxCell>
        <mxCell id="NPeufH-eWJfrgTwNhand-7" value="Rescue System" style="rounded=0;whiteSpace=wrap;html=1;" vertex="1" parent="1">
          <mxGeometry x="680" y="220" width="120" height="60" as="geometry" />
        </mxCell>
        <mxCell id="NPeufH-eWJfrgTwNhand-8" value="Runway Clearance System" style="rounded=0;whiteSpace=wrap;html=1;" vertex="1" parent="1">
          <mxGeometry x="850" y="220" width="120" height="60" as="geometry" />
        </mxCell>
        <mxCell id="NPeufH-eWJfrgTwNhand-9" value="Maintenance System" style="rounded=0;whiteSpace=wrap;html=1;" vertex="1" parent="1">
          <mxGeometry x="1010" y="220" width="120" height="60" as="geometry" />
        </mxCell>
        <mxCell id="NPeufH-eWJfrgTwNhand-10" value="FlighsPlan" style="rounded=0;whiteSpace=wrap;html=1;" vertex="1" parent="1">
          <mxGeometry x="-30" y="410" width="120" height="60" as="geometry" />
        </mxCell>
        <mxCell id="NPeufH-eWJfrgTwNhand-11" value="Pilot" style="rounded=0;whiteSpace=wrap;html=1;" vertex="1" parent="1">
          <mxGeometry x="180" y="410" width="120" height="60" as="geometry" />
        </mxCell>
        <mxCell id="NPeufH-eWJfrgTwNhand-12" value="Weather Data" style="rounded=0;whiteSpace=wrap;html=1;" vertex="1" parent="1">
          <mxGeometry x="410" y="410" width="120" height="60" as="geometry" />
        </mxCell>
        <mxCell id="NPeufH-eWJfrgTwNhand-13" value="WayPoint" style="rounded=0;whiteSpace=wrap;html=1;" vertex="1" parent="1">
          <mxGeometry x="-30" y="540" width="120" height="60" as="geometry" />
        </mxCell>
        <mxCell id="NPeufH-eWJfrgTwNhand-14" value="" style="endArrow=none;html=1;rounded=0;entryX=0.5;entryY=0;entryDx=0;entryDy=0;exitX=0.007;exitY=0.606;exitDx=0;exitDy=0;exitPerimeter=0;" edge="1" parent="1" source="NPeufH-eWJfrgTwNhand-17" target="NPeufH-eWJfrgTwNhand-3">
          <mxGeometry relative="1" as="geometry">
            <mxPoint x="70" y="100" as="sourcePoint" />
            <mxPoint x="490" y="430" as="targetPoint" />
          </mxGeometry>
        </mxCell>
        <mxCell id="NPeufH-eWJfrgTwNhand-15" value="N" style="resizable=0;html=1;whiteSpace=wrap;align=right;verticalAlign=bottom;" connectable="0" vertex="1" parent="NPeufH-eWJfrgTwNhand-14">
          <mxGeometry x="1" relative="1" as="geometry" />
        </mxCell>
        <mxCell id="NPeufH-eWJfrgTwNhand-17" value="" style="line;strokeWidth=1;rotatable=0;dashed=0;labelPosition=right;align=left;verticalAlign=middle;spacingTop=0;spacingLeft=6;points=[];portConstraint=eastwest;" vertex="1" parent="1">
          <mxGeometry x="70" y="90" width="340" height="10" as="geometry" />
        </mxCell>
        <mxCell id="NPeufH-eWJfrgTwNhand-19" value="" style="endArrow=none;html=1;rounded=0;entryX=0.5;entryY=0;entryDx=0;entryDy=0;" edge="1" parent="1" target="NPeufH-eWJfrgTwNhand-4">
          <mxGeometry relative="1" as="geometry">
            <mxPoint x="240" y="110" as="sourcePoint" />
            <mxPoint x="330" y="180" as="targetPoint" />
          </mxGeometry>
        </mxCell>
        <mxCell id="NPeufH-eWJfrgTwNhand-20" value="N" style="resizable=0;html=1;whiteSpace=wrap;align=right;verticalAlign=bottom;" connectable="0" vertex="1" parent="NPeufH-eWJfrgTwNhand-19">
          <mxGeometry x="1" relative="1" as="geometry" />
        </mxCell>
        <mxCell id="NPeufH-eWJfrgTwNhand-21" value="" style="line;strokeWidth=1;rotatable=0;dashed=0;labelPosition=right;align=left;verticalAlign=middle;spacingTop=0;spacingLeft=6;points=[];portConstraint=eastwest;" vertex="1" parent="1">
          <mxGeometry x="240" y="110" width="170" height="10" as="geometry" />
        </mxCell>
        <mxCell id="NPeufH-eWJfrgTwNhand-22" value="" style="endArrow=none;html=1;rounded=0;entryX=0.696;entryY=0.03;entryDx=0;entryDy=0;entryPerimeter=0;" edge="1" parent="1" target="NPeufH-eWJfrgTwNhand-5">
          <mxGeometry relative="1" as="geometry">
            <mxPoint x="434" y="120" as="sourcePoint" />
            <mxPoint x="590" y="180" as="targetPoint" />
          </mxGeometry>
        </mxCell>
        <mxCell id="NPeufH-eWJfrgTwNhand-23" value="1" style="resizable=0;html=1;whiteSpace=wrap;align=right;verticalAlign=bottom;" connectable="0" vertex="1" parent="NPeufH-eWJfrgTwNhand-22">
          <mxGeometry x="1" relative="1" as="geometry" />
        </mxCell>
        <mxCell id="NPeufH-eWJfrgTwNhand-24" value="" style="endArrow=none;html=1;rounded=0;exitX=0.75;exitY=1;exitDx=0;exitDy=0;" edge="1" parent="1" source="NPeufH-eWJfrgTwNhand-1">
          <mxGeometry relative="1" as="geometry">
            <mxPoint x="430" y="180" as="sourcePoint" />
            <mxPoint x="520" y="220" as="targetPoint" />
          </mxGeometry>
        </mxCell>
        <mxCell id="NPeufH-eWJfrgTwNhand-25" value="1" style="resizable=0;html=1;whiteSpace=wrap;align=right;verticalAlign=bottom;" connectable="0" vertex="1" parent="NPeufH-eWJfrgTwNhand-24">
          <mxGeometry x="1" relative="1" as="geometry" />
        </mxCell>
        <mxCell id="NPeufH-eWJfrgTwNhand-26" value="" style="endArrow=none;html=1;rounded=0;exitX=0.986;exitY=0.832;exitDx=0;exitDy=0;entryX=0.575;entryY=0.046;entryDx=0;entryDy=0;entryPerimeter=0;exitPerimeter=0;" edge="1" parent="1" source="NPeufH-eWJfrgTwNhand-1" target="NPeufH-eWJfrgTwNhand-7">
          <mxGeometry relative="1" as="geometry">
            <mxPoint x="525" y="130" as="sourcePoint" />
            <mxPoint x="525" y="231" as="targetPoint" />
            <Array as="points">
              <mxPoint x="750" y="107" />
            </Array>
          </mxGeometry>
        </mxCell>
        <mxCell id="NPeufH-eWJfrgTwNhand-27" value="1" style="resizable=0;html=1;whiteSpace=wrap;align=right;verticalAlign=bottom;" connectable="0" vertex="1" parent="NPeufH-eWJfrgTwNhand-26">
          <mxGeometry x="1" relative="1" as="geometry" />
        </mxCell>
        <mxCell id="NPeufH-eWJfrgTwNhand-28" value="" style="endArrow=none;html=1;rounded=0;exitX=1;exitY=0.5;exitDx=0;exitDy=0;entryX=0.32;entryY=-0.02;entryDx=0;entryDy=0;entryPerimeter=0;" edge="1" parent="1" source="NPeufH-eWJfrgTwNhand-1" target="NPeufH-eWJfrgTwNhand-8">
          <mxGeometry relative="1" as="geometry">
            <mxPoint x="535" y="140" as="sourcePoint" />
            <mxPoint x="535" y="241" as="targetPoint" />
            <Array as="points">
              <mxPoint x="890" y="80" />
            </Array>
          </mxGeometry>
        </mxCell>
        <mxCell id="NPeufH-eWJfrgTwNhand-29" value="1" style="resizable=0;html=1;whiteSpace=wrap;align=right;verticalAlign=bottom;" connectable="0" vertex="1" parent="NPeufH-eWJfrgTwNhand-28">
          <mxGeometry x="1" relative="1" as="geometry" />
        </mxCell>
        <mxCell id="NPeufH-eWJfrgTwNhand-30" value="" style="endArrow=none;html=1;rounded=0;exitX=1.011;exitY=0.18;exitDx=0;exitDy=0;entryX=0.408;entryY=-0.046;entryDx=0;entryDy=0;entryPerimeter=0;exitPerimeter=0;" edge="1" parent="1" source="NPeufH-eWJfrgTwNhand-1" target="NPeufH-eWJfrgTwNhand-9">
          <mxGeometry relative="1" as="geometry">
            <mxPoint x="545" y="150" as="sourcePoint" />
            <mxPoint x="545" y="251" as="targetPoint" />
            <Array as="points">
              <mxPoint x="1059" y="60" />
            </Array>
          </mxGeometry>
        </mxCell>
        <mxCell id="NPeufH-eWJfrgTwNhand-31" value="1" style="resizable=0;html=1;whiteSpace=wrap;align=right;verticalAlign=bottom;" connectable="0" vertex="1" parent="NPeufH-eWJfrgTwNhand-30">
          <mxGeometry x="1" relative="1" as="geometry" />
        </mxCell>
        <mxCell id="NPeufH-eWJfrgTwNhand-32" value="" style="endArrow=none;html=1;rounded=0;exitX=0.75;exitY=1;exitDx=0;exitDy=0;entryX=0.57;entryY=-0.011;entryDx=0;entryDy=0;entryPerimeter=0;" edge="1" parent="1" target="NPeufH-eWJfrgTwNhand-10">
          <mxGeometry relative="1" as="geometry">
            <mxPoint x="40" y="280" as="sourcePoint" />
            <mxPoint x="40" y="381" as="targetPoint" />
          </mxGeometry>
        </mxCell>
        <mxCell id="NPeufH-eWJfrgTwNhand-33" value="1" style="resizable=0;html=1;whiteSpace=wrap;align=right;verticalAlign=bottom;" connectable="0" vertex="1" parent="NPeufH-eWJfrgTwNhand-32">
          <mxGeometry x="1" relative="1" as="geometry" />
        </mxCell>
        <mxCell id="NPeufH-eWJfrgTwNhand-34" value="" style="endArrow=none;html=1;rounded=0;entryX=0.25;entryY=0;entryDx=0;entryDy=0;exitX=0.592;exitY=1.041;exitDx=0;exitDy=0;exitPerimeter=0;" edge="1" parent="1" source="NPeufH-eWJfrgTwNhand-3" target="NPeufH-eWJfrgTwNhand-11">
          <mxGeometry relative="1" as="geometry">
            <mxPoint x="80" y="360" as="sourcePoint" />
            <mxPoint x="340" y="330" as="targetPoint" />
            <Array as="points">
              <mxPoint x="80" y="360" />
              <mxPoint x="210" y="360" />
            </Array>
          </mxGeometry>
        </mxCell>
        <mxCell id="NPeufH-eWJfrgTwNhand-35" value="N" style="resizable=0;html=1;whiteSpace=wrap;align=right;verticalAlign=bottom;" connectable="0" vertex="1" parent="NPeufH-eWJfrgTwNhand-34">
          <mxGeometry x="1" relative="1" as="geometry" />
        </mxCell>
        <mxCell id="NPeufH-eWJfrgTwNhand-36" value="" style="endArrow=none;html=1;rounded=0;exitX=0.442;exitY=1.083;exitDx=0;exitDy=0;exitPerimeter=0;entryX=0.402;entryY=0.023;entryDx=0;entryDy=0;entryPerimeter=0;" edge="1" parent="1" source="NPeufH-eWJfrgTwNhand-4" target="NPeufH-eWJfrgTwNhand-12">
          <mxGeometry relative="1" as="geometry">
            <mxPoint x="180" y="330" as="sourcePoint" />
            <mxPoint x="470" y="320" as="targetPoint" />
            <Array as="points">
              <mxPoint x="233" y="320" />
              <mxPoint x="460" y="320" />
            </Array>
          </mxGeometry>
        </mxCell>
        <mxCell id="NPeufH-eWJfrgTwNhand-37" value="N" style="resizable=0;html=1;whiteSpace=wrap;align=right;verticalAlign=bottom;" connectable="0" vertex="1" parent="NPeufH-eWJfrgTwNhand-36">
          <mxGeometry x="1" relative="1" as="geometry" />
        </mxCell>
        <mxCell id="NPeufH-eWJfrgTwNhand-38" value="" style="endArrow=none;html=1;rounded=0;exitX=0.5;exitY=1;exitDx=0;exitDy=0;" edge="1" parent="1" source="NPeufH-eWJfrgTwNhand-10">
          <mxGeometry relative="1" as="geometry">
            <mxPoint x="130" y="520" as="sourcePoint" />
            <mxPoint x="30" y="540" as="targetPoint" />
          </mxGeometry>
        </mxCell>
        <mxCell id="NPeufH-eWJfrgTwNhand-39" value="N" style="resizable=0;html=1;whiteSpace=wrap;align=right;verticalAlign=bottom;" connectable="0" vertex="1" parent="NPeufH-eWJfrgTwNhand-38">
          <mxGeometry x="1" relative="1" as="geometry" />
        </mxCell>
        <mxCell id="NPeufH-eWJfrgTwNhand-40" value="1" style="text;html=1;strokeColor=none;fillColor=none;align=center;verticalAlign=middle;whiteSpace=wrap;rounded=0;" vertex="1" parent="1">
          <mxGeometry x="370" y="110" width="60" height="30" as="geometry" />
        </mxCell>
        <mxCell id="NPeufH-eWJfrgTwNhand-41" value="1" style="text;html=1;strokeColor=none;fillColor=none;align=center;verticalAlign=middle;whiteSpace=wrap;rounded=0;" vertex="1" parent="1">
          <mxGeometry x="365" y="70" width="60" height="30" as="geometry" />
        </mxCell>
        <mxCell id="NPeufH-eWJfrgTwNhand-42" value="1" style="text;html=1;strokeColor=none;fillColor=none;align=center;verticalAlign=middle;whiteSpace=wrap;rounded=0;" vertex="1" parent="1">
          <mxGeometry x="430" y="120" width="60" height="30" as="geometry" />
        </mxCell>
        <mxCell id="NPeufH-eWJfrgTwNhand-47" value="1" style="text;html=1;strokeColor=none;fillColor=none;align=center;verticalAlign=middle;whiteSpace=wrap;rounded=0;" vertex="1" parent="1">
          <mxGeometry x="500" y="120" width="60" height="30" as="geometry" />
        </mxCell>
        <mxCell id="NPeufH-eWJfrgTwNhand-48" value="1" style="text;html=1;strokeColor=none;fillColor=none;align=center;verticalAlign=middle;whiteSpace=wrap;rounded=0;" vertex="1" parent="1">
          <mxGeometry x="520" y="30" width="60" height="30" as="geometry" />
        </mxCell>
        <mxCell id="NPeufH-eWJfrgTwNhand-49" value="1" style="text;html=1;strokeColor=none;fillColor=none;align=center;verticalAlign=middle;whiteSpace=wrap;rounded=0;" vertex="1" parent="1">
          <mxGeometry x="550" y="110" width="60" height="30" as="geometry" />
        </mxCell>
        <mxCell id="NPeufH-eWJfrgTwNhand-52" value="1" style="text;html=1;strokeColor=none;fillColor=none;align=center;verticalAlign=middle;whiteSpace=wrap;rounded=0;" vertex="1" parent="1">
          <mxGeometry y="280" width="60" height="30" as="geometry" />
        </mxCell>
        <mxCell id="NPeufH-eWJfrgTwNhand-53" value="1" style="text;html=1;strokeColor=none;fillColor=none;align=center;verticalAlign=middle;whiteSpace=wrap;rounded=0;" vertex="1" parent="1">
          <mxGeometry x="60" y="280" width="60" height="30" as="geometry" />
        </mxCell>
        <mxCell id="NPeufH-eWJfrgTwNhand-54" value="1" style="text;html=1;strokeColor=none;fillColor=none;align=center;verticalAlign=middle;whiteSpace=wrap;rounded=0;" vertex="1" parent="1">
          <mxGeometry x="190" y="280" width="60" height="30" as="geometry" />
        </mxCell>
        <mxCell id="NPeufH-eWJfrgTwNhand-55" value="1" style="text;html=1;strokeColor=none;fillColor=none;align=center;verticalAlign=middle;whiteSpace=wrap;rounded=0;" vertex="1" parent="1">
          <mxGeometry x="-10" y="470" width="60" height="30" as="geometry" />
        </mxCell>
      </root>
    </mxGraphModel>
  </diagram>
</mxfile>
